<?xml version="1.0" encoding="utf-8"?>
<!-- Generator: Adobe Illustrator 15.0.0, SVG Export Plug-In . SVG Version: 6.00 Build 0)  -->
<!DOCTYPE svg PUBLIC "-//W3C//DTD SVG 1.1//EN" "http://www.w3.org/Graphics/SVG/1.1/DTD/svg11.dtd">
<svg version="1.1" xmlns="http://www.w3.org/2000/svg" xmlns:xlink="http://www.w3.org/1999/xlink" x="0px" y="0px"
	 width="245.719px" height="33.039px" viewBox="0 0 245.719 33.039" enable-background="new 0 0 245.719 33.039"
	 xml:space="preserve">
<g id="window">
</g>
<g id="design">
	<g>
		<path fill="#FFFFFF" d="M57.781,0v1.835h-2.447v31.204h-2.447V1.835h-2.447V0H57.781z"/>
		<path fill="#FFFFFF" d="M68.916,13.46c0,0.918-0.152,1.556-0.459,1.912c-0.306,0.357-0.765,0.535-1.376,0.535
			c0.306,0,0.573,0.07,0.803,0.211s0.421,0.325,0.573,0.555c0.153,0.229,0.268,0.49,0.345,0.783
			c0.076,0.294,0.114,0.593,0.114,0.899v14.684h-2.447V17.743c0-0.306-0.07-0.542-0.21-0.707c-0.141-0.166-0.325-0.287-0.555-0.363
			c-0.229-0.077-0.491-0.121-0.784-0.134s-0.593-0.02-0.898-0.02v16.52h-2.447V0h2.447c0.612,0,1.211,0.016,1.798,0.048
			c0.586,0.032,1.108,0.144,1.567,0.334c0.459,0.191,0.828,0.494,1.109,0.908c0.279,0.415,0.42,1.004,0.42,1.77V13.46z M66.469,3.06
			c0-0.307-0.041-0.542-0.124-0.708c-0.083-0.165-0.22-0.287-0.411-0.363s-0.443-0.121-0.755-0.134
			c-0.312-0.013-0.698-0.02-1.157-0.02v13.461c0.306,0,0.605-0.007,0.898-0.02s0.555-0.057,0.784-0.134
			c0.229-0.076,0.414-0.197,0.555-0.363c0.14-0.165,0.21-0.401,0.21-0.707V3.06z"/>
		<path fill="#FFFFFF" d="M80.052,33.039h-2.447l-0.307-7.954h-1.816l-0.324,7.954H72.71L74.545,0h3.671L80.052,33.039z
			 M76.992,15.907L76.381,1.224l-0.612,14.684l-0.287,7.343h1.816L76.992,15.907z"/>
		<path fill="#FFFFFF" d="M86.312,10.401l0.593,12.236l0.593-12.236L88.274,0h2.301l-2.454,33.039h-2.588L83.233,0h2.454
			L86.312,10.401z"/>
		<path fill="#FFFFFF" d="M99.876,1.835h-3.06v12.849h2.447v1.836h-2.447v14.684h3.06v1.836h-5.507V0h5.507V1.835z"/>
		<path fill="#FFFFFF" d="M106.116,0v31.203h2.447v1.836h-4.895V0H106.116z"/>
		<path fill="#FFFFFF" d="M124.965,4.886l-0.599,9.18l-1.237,18.974h-2.447L118.847,0h2.447l0.634,23.251L123.77,0h2.084
			l1.843,23.271L128.636,0h2.447l-1.836,33.039H126.8l-1.236-18.973L124.965,4.886z"/>
		<path fill="#FFFFFF" d="M140.383,1.835h-3.06v12.849h2.447v1.836h-2.447v14.684h3.06v1.836h-5.507V0h5.507V1.835z"/>
		<path fill="#FFFFFF" d="M150.906,33.039h-2.447l-0.307-7.954h-1.816l-0.324,7.954h-2.447L145.399,0h3.671L150.906,33.039z
			 M147.847,15.907l-0.611-14.684l-0.612,14.684l-0.287,7.343h1.816L147.847,15.907z"/>
		<path fill="#FFFFFF" d="M161.296,0v1.835h-2.447v31.204h-2.447V1.835h-2.447V0H161.296z"/>
		<path fill="#FFFFFF" d="M167.536,15.296h2.447V0h2.447v33.039h-2.447V17.131h-2.447v15.908h-2.447V0h2.447V15.296z"/>
		<path fill="#FFFFFF" d="M182.344,1.835h-3.06v12.849h2.447v1.836h-2.447v14.684h3.06v1.836h-5.507V0h5.507V1.835z"/>
		<path fill="#FFFFFF" d="M193.479,13.46c0,0.918-0.152,1.556-0.459,1.912c-0.306,0.357-0.765,0.535-1.376,0.535
			c0.306,0,0.573,0.07,0.803,0.211s0.421,0.325,0.573,0.555c0.153,0.229,0.268,0.49,0.345,0.783
			c0.076,0.294,0.114,0.593,0.114,0.899v14.684h-2.447V17.743c0-0.306-0.07-0.542-0.21-0.707c-0.141-0.166-0.325-0.287-0.555-0.363
			c-0.229-0.077-0.491-0.121-0.784-0.134s-0.593-0.02-0.898-0.02v16.52h-2.447V0h2.447c0.612,0,1.211,0.016,1.798,0.048
			c0.586,0.032,1.108,0.144,1.567,0.334c0.459,0.191,0.828,0.494,1.109,0.908c0.279,0.415,0.42,1.004,0.42,1.77V13.46z
			 M191.031,3.06c0-0.307-0.041-0.542-0.124-0.708c-0.083-0.165-0.22-0.287-0.411-0.363s-0.443-0.121-0.755-0.134
			c-0.312-0.013-0.698-0.02-1.157-0.02v13.461c0.306,0,0.605-0.007,0.898-0.02s0.555-0.057,0.784-0.134
			c0.229-0.076,0.414-0.197,0.555-0.363c0.14-0.165,0.21-0.401,0.21-0.707V3.06z"/>
	</g>
	<polygon fill="#FFFFFF" points="3.673,10.725 47.052,10.725 47.052,8.218 0,8.218 	"/>
	<polygon fill="#FFFFFF" points="12.855,16.993 47.052,16.993 47.052,14.487 9.183,14.487 	"/>
	<polygon fill="#FFFFFF" points="22.037,23.26 47.052,23.26 47.052,20.754 18.365,20.754 	"/>
	<polygon fill="#FFFFFF" points="242.046,10.725 198.667,10.725 198.667,8.218 245.719,8.218 	"/>
	<polygon fill="#FFFFFF" points="232.863,16.993 198.667,16.993 198.667,14.487 236.536,14.487 	"/>
	<polygon fill="#FFFFFF" points="223.682,23.26 198.667,23.26 198.667,20.754 227.354,20.754 	"/>
</g>
</svg>
